<svg width="273" height="90" viewBox="0 0 273 90" fill="none" xmlns="http://www.w3.org/2000/svg">
<path d="M258.428 67.0118H14.5725C6.5238 67.0118 0 60.5185 0 52.5073V14.5045C0 6.49338 6.5238 0 14.5725 0H258.428C266.476 0 273 6.49338 273 14.5045V52.5073C273 60.5185 266.476 67.0118 258.428 67.0118Z" fill="#1C1A8E"/>
<path d="M56.0003 15.1861L43.7257 49.6307H33.1775L20.9028 15.1861H29.8757L38.4537 41.1889L47.0821 15.1861H56.0003Z" fill="white"/>
<path d="M67.931 21.9053V28.8711H79.2184V35.3478H67.931V42.9032H80.6971V49.6265H59.5V15.1861H80.6971V21.9094H67.931V21.9053Z" fill="white"/>
<path d="M103.818 49.6265L96.618 36.6272H94.5975V49.6307H86.1665V15.1861H100.315C103.041 15.1861 105.368 15.6586 107.288 16.6077C109.212 17.5568 110.649 18.8572 111.602 20.5087C112.556 22.1603 113.03 24 113.03 26.0279C113.03 28.3192 112.379 30.3638 111.081 32.1617C109.783 33.9596 107.868 35.2349 105.339 35.9875L113.325 49.6265H103.818ZM94.5975 30.6899H99.8232C101.369 30.6899 102.524 30.3136 103.297 29.561C104.07 28.8084 104.457 27.7464 104.457 26.3708C104.457 25.0621 104.07 24.0335 103.297 23.2809C102.524 22.5283 101.365 22.1519 99.8232 22.1519H94.5975V30.6899Z" fill="white"/>
<path d="M143.205 15.1861V21.9094H134.034V49.6307H125.603V21.9094H116.433V15.1861H143.205Z" fill="white"/>
<path d="M155.87 15.1861V49.6307H147.439V15.1861H155.87Z" fill="white"/>
<path d="M162.772 23.2557C164.25 20.5882 166.313 18.5143 168.959 17.0258C171.606 15.5373 174.605 14.793 177.958 14.793C182.066 14.793 185.582 15.8718 188.506 18.0293C191.429 20.1868 193.387 23.1303 194.37 26.8599H185.103C184.414 25.4216 183.435 24.3261 182.171 23.5735C180.906 22.8209 179.466 22.4446 177.857 22.4446C175.261 22.4446 173.156 23.3436 171.547 25.1415C169.938 26.9394 169.132 29.3436 169.132 32.354C169.132 35.3645 169.938 37.7686 171.547 39.5665C173.156 41.3645 175.261 42.2634 177.857 42.2634C179.466 42.2634 180.906 41.8871 182.171 41.1345C183.435 40.3819 184.414 39.2864 185.103 37.8481H194.37C193.383 41.5777 191.429 44.5129 188.506 46.6537C185.582 48.7986 182.066 49.869 177.958 49.869C174.605 49.869 171.606 49.1247 168.959 47.6362C166.313 46.1477 164.25 44.078 162.772 41.4314C161.293 38.7805 160.554 35.7575 160.554 32.354C160.554 28.9547 161.293 25.9233 162.772 23.2557Z" fill="white"/>
<path d="M207.976 43.154H219.02V49.6307H202.511C200.873 49.6307 199.545 48.3094 199.545 46.6788V18.1338C199.545 16.5031 200.873 15.1819 202.511 15.1819H207.976V43.154Z" fill="white"/>
<path d="M223.885 16.9087V21.2864H221.494V17.5652H217.735V15.1861H222.154C223.112 15.1861 223.885 15.9554 223.885 16.9087Z" fill="white"/>
<path d="M223.868 24.347V26.7261H221.515V24.347H223.868Z" fill="white"/>
<path d="M223.868 28.9254V31.3045H221.515V28.9254H223.868Z" fill="white"/>
<path d="M223.868 33.508V35.8871H221.515V33.508H223.868Z" fill="white"/>
<path d="M223.868 38.0864V40.4655H221.515V38.0864H223.868Z" fill="white"/>
<path d="M223.868 42.669V45.0481H221.515V42.669H223.868Z" fill="white"/>
<path d="M223.868 47.2474V49.6265H221.515V47.2474H223.868Z" fill="white"/>
<path d="M254.416 31.7436C253.496 33.3952 252.08 34.729 250.177 35.7408C248.27 36.7568 245.905 37.2628 243.078 37.2628H237.852V49.6265H229.421V15.1861H243.078C245.838 15.1861 248.173 15.6586 250.076 16.6077C251.983 17.5568 253.412 18.8655 254.365 20.5338C255.319 22.2021 255.794 24.1171 255.794 26.2746C255.794 28.269 255.336 30.092 254.416 31.7436ZM246.035 29.4607C246.825 28.708 247.22 27.646 247.22 26.2704C247.22 24.8948 246.825 23.8328 246.035 23.0802C245.245 22.3276 244.048 21.9513 242.435 21.9513H237.852V30.5854H242.435C244.048 30.5896 245.245 30.2175 246.035 29.4607Z" fill="white"/>
<path d="M213.122 47.8996C213.976 47.8996 214.668 47.2107 214.668 46.3609C214.668 45.5112 213.976 44.8223 213.122 44.8223C212.268 44.8223 211.576 45.5112 211.576 46.3609C211.576 47.2107 212.268 47.8996 213.122 47.8996Z" fill="#1C1A8E"/>
<path d="M241.221 90H144.292C136.244 90 129.72 83.5066 129.72 75.4955C129.72 67.4843 136.244 60.991 144.292 60.991H241.221C249.27 60.991 255.794 67.4843 255.794 75.4955C255.794 83.5066 249.27 90 241.221 90Z" fill="url(#paint0_linear)"/>
<path d="M170.358 81.6418C170.404 81.6209 170.451 81.5874 170.497 81.554L170.535 81.5289L175.794 78.0585L175.924 78.2509C175.966 78.3052 176.034 78.3387 176.109 78.347C176.185 78.3554 176.256 78.3345 176.311 78.2843C177.214 77.5108 177.668 76.524 177.626 75.4327C177.588 74.4083 177.058 73.3714 176.244 72.7233C176.181 72.6731 176.105 72.6522 176.025 72.6648C175.949 72.6773 175.886 72.7191 175.849 72.7819L175.475 73.4258L175.37 73.3547C175.261 73.2794 175.252 73.1373 175.24 72.9909C175.227 72.8237 175.214 72.6481 175.088 72.5644L170.53 69.5582C170.316 69.416 170.077 69.2948 169.825 69.2028L169.703 69.1568L169.795 68.9603C169.825 68.8934 169.821 68.8139 169.791 68.7428C169.762 68.6759 169.711 68.6299 169.648 68.609C168.569 68.2244 167.514 68.3331 166.607 68.9268C165.758 69.4829 165.124 70.4655 164.956 71.4982C164.943 71.5819 164.964 71.6655 165.015 71.724C165.061 71.7784 165.12 71.8118 165.187 71.8118H165.994V71.9289C165.994 72.1338 165.427 72.4516 165.427 72.5519V73.6265C165.427 73.6808 165.473 73.7226 165.523 73.7226H166.279C166.708 73.7226 167.01 73.4383 167.01 73.0286V72.1923C167.01 71.6989 167.208 71.2432 167.552 70.9421C168.107 70.4529 168.926 70.3944 169.543 70.8L173.858 73.6432L173.862 73.6348L173.858 73.6432L173.862 73.6348L173.858 73.6432L174.706 74.2035C175.067 74.4418 175.315 74.7888 175.403 75.1819C175.546 75.8299 175.286 76.4822 174.735 76.846C174.706 76.8627 171.837 78.7986 170.194 79.8397C170.169 79.8564 170.14 79.8732 170.11 79.8941L169.543 80.2662C168.93 80.6718 168.14 80.6216 167.577 80.1449C167.216 79.8397 167.01 79.3714 167.01 78.8613V78.2801C167.01 78.0251 166.872 77.9373 166.712 77.8369C166.573 77.7491 166.414 77.6488 166.414 77.4313V77.3143H167.426C167.691 77.3143 167.909 77.0968 167.909 76.8334V75.5791H168.291C168.388 75.5791 168.464 75.4996 168.464 75.4077V74.7219C168.464 74.6258 168.384 74.5505 168.291 74.5505H164.15C164.053 74.5505 163.977 74.63 163.977 74.7219V75.4077C163.977 75.5038 164.057 75.5791 164.15 75.5791H164.532V76.8334C164.532 77.0968 164.75 77.3143 165.015 77.3143H165.427V78.878C165.427 78.9617 165.431 79.0453 165.439 79.1498L165.448 79.2752L165.183 79.2836C165.116 79.2878 165.057 79.3171 165.011 79.3714C164.96 79.4341 164.939 79.5178 164.952 79.5972C165.12 80.6258 165.754 81.6125 166.603 82.1686C167.51 82.7624 168.565 82.8711 169.644 82.4864C169.707 82.4655 169.758 82.4153 169.787 82.3526C169.816 82.2815 169.821 82.2021 169.791 82.131L169.484 81.508L169.577 81.4536C169.711 81.37 169.875 81.4536 170.035 81.5373C170.152 81.6 170.299 81.6752 170.358 81.6418Z" fill="white"/>
<path d="M187.653 71.6697H184.465C184.208 71.6697 183.998 71.8787 183.998 72.1338V78.9826C183.998 79.2376 184.208 79.4467 184.465 79.4467H185.196C185.452 79.4467 185.662 79.2376 185.662 78.9826V76.662H187.653C189.337 76.662 190.274 75.5331 190.274 74.1784C190.278 72.8153 189.354 71.6697 187.653 71.6697ZM187.435 75.2362H185.666V73.0913H187.435C188.09 73.0913 188.581 73.5219 188.581 74.1617C188.581 74.8181 188.09 75.2362 187.435 75.2362Z" fill="white"/>
<path d="M194.025 71.6697H193.294C193.038 71.6697 192.828 71.8787 192.828 72.1338V78.9826C192.828 79.2376 193.038 79.4467 193.294 79.4467H194.025C194.282 79.4467 194.492 79.2376 194.492 78.9826V72.1338C194.492 71.8787 194.286 71.6697 194.025 71.6697Z" fill="white"/>
<path d="M201.213 71.6697H198.025C197.768 71.6697 197.558 71.8787 197.558 72.1338V78.9826C197.558 79.2376 197.768 79.4467 198.025 79.4467H198.756C199.012 79.4467 199.222 79.2376 199.222 78.9826V76.662H201.213C202.897 76.662 203.834 75.5331 203.834 74.1784C203.834 72.8153 202.91 71.6697 201.213 71.6697ZM200.99 75.2362H199.222V73.0913H200.99C201.646 73.0913 202.137 73.5219 202.137 74.1617C202.137 74.8181 201.646 75.2362 200.99 75.2362Z" fill="white"/>
<path d="M211.45 71.6697H206.855C206.598 71.6697 206.388 71.8787 206.388 72.1338V78.9826C206.388 79.2376 206.598 79.4467 206.855 79.4467H211.45C211.707 79.4467 211.917 79.2376 211.917 78.9826V78.4766C211.917 78.2216 211.707 78.0125 211.45 78.0125H208.052V76.2063H211.371C211.627 76.2063 211.837 75.9972 211.837 75.7421V75.2446C211.837 74.9895 211.627 74.7805 211.371 74.7805H208.052V73.0913H211.45C211.707 73.0913 211.917 72.8822 211.917 72.6272V72.1296C211.912 71.8787 211.707 71.6697 211.45 71.6697Z" fill="white"/>
<path d="M219.234 77.9874H216.399V72.1338C216.399 71.8787 216.189 71.6697 215.933 71.6697H215.202C214.945 71.6697 214.735 71.8787 214.735 72.1338V78.9826C214.735 79.2376 214.945 79.4467 215.202 79.4467H219.234C219.491 79.4467 219.701 79.2376 219.701 78.9826V78.4516C219.701 78.1965 219.491 77.9874 219.234 77.9874Z" fill="white"/>
<path d="M223.578 71.6697H222.847C222.591 71.6697 222.381 71.8787 222.381 72.1338V78.9826C222.381 79.2376 222.591 79.4467 222.847 79.4467H223.578C223.834 79.4467 224.044 79.2376 224.044 78.9826V72.1338C224.044 71.8787 223.834 71.6697 223.578 71.6697Z" fill="white"/>
<path d="M233.635 71.6697H232.904C232.647 71.6697 232.437 71.8787 232.437 72.1338V76.7038L228.959 71.862C228.871 71.7408 228.732 71.6697 228.581 71.6697H227.577C227.321 71.6697 227.111 71.8787 227.111 72.1338V78.9826C227.111 79.2376 227.321 79.4467 227.577 79.4467H228.308C228.564 79.4467 228.774 79.2376 228.774 78.9826V74.2244L232.358 79.2502C232.446 79.3714 232.584 79.4467 232.736 79.4467H233.635C233.891 79.4467 234.101 79.2376 234.101 78.9826V72.1338C234.101 71.8787 233.891 71.6697 233.635 71.6697Z" fill="white"/>
<path d="M242.229 71.6697H237.634C237.378 71.6697 237.167 71.8787 237.167 72.1338V78.9826C237.167 79.2376 237.378 79.4467 237.634 79.4467H242.229C242.486 79.4467 242.696 79.2376 242.696 78.9826V78.4766C242.696 78.2216 242.486 78.0125 242.229 78.0125H238.831V76.2063H242.15C242.406 76.2063 242.616 75.9972 242.616 75.7421V75.2446C242.616 74.9895 242.406 74.7805 242.15 74.7805H238.831V73.0913H242.229C242.486 73.0913 242.696 72.8822 242.696 72.6272V72.1296C242.696 71.8787 242.486 71.6697 242.229 71.6697Z" fill="white"/>
<path d="M147.821 75.9847C148.056 76.2857 148.174 76.6327 148.174 77.0174C148.174 77.5777 147.976 78.0209 147.586 78.347C147.195 78.6732 146.645 78.8362 145.943 78.8362H142.814V72.1505H145.838C146.519 72.1505 147.056 72.3052 147.439 72.6188C147.825 72.9282 148.018 73.3505 148.018 73.8857C148.018 74.2787 147.913 74.6049 147.708 74.8683C147.502 75.1275 147.225 75.3073 146.88 75.4118C147.275 75.4913 147.586 75.6836 147.821 75.9847ZM144.456 74.8599H145.527C145.796 74.8599 146.002 74.8014 146.145 74.6843C146.288 74.5672 146.359 74.3958 146.359 74.1658C146.359 73.9359 146.288 73.7645 146.145 73.6432C146.002 73.5219 145.796 73.4634 145.527 73.4634H144.456V74.8599ZM146.296 77.3394C146.447 77.2139 146.523 77.0383 146.523 76.8C146.523 76.5658 146.443 76.3819 146.288 76.2481C146.132 76.1143 145.918 76.0474 145.641 76.0474H144.456V77.5233H145.662C145.935 77.5233 146.145 77.4648 146.296 77.3394Z" fill="white"/>
<path d="M154.882 72.1547L152.559 76.6328V78.8404H150.925V76.6328L148.602 72.1547H150.459L151.761 74.9561L153.051 72.1547H154.882Z" fill="white"/>
<defs>
<linearGradient id="paint0_linear" x1="129.718" y1="75.4962" x2="255.796" y2="75.4962" gradientUnits="userSpaceOnUse">
<stop stop-color="#FF553E"/>
<stop offset="1" stop-color="#FF237F"/>
</linearGradient>
</defs>
</svg>
